<svg viewBox="0 0 1000 500" xmlns="http://www.w3.org/2000/svg">
  <!-- North America -->
  
  <!-- United States -->
  <path d="M158 230 L180 228 L200 225 L220 220 L240 218 L260 215 L280 210 L300 208 L320 205 L340 200 L340 220 L338 240 L335 260 L330 280 L325 300 L320 320 L310 335 L300 340 L280 345 L260 348 L240 350 L220 348 L200 345 L180 340 L165 335 L155 325 L150 310 L148 295 L150 280 L152 265 L155 250 L158 235 Z" data-iso="USA" fill="#e5e7eb" stroke="#ffffff" stroke-width="0.5"/>
  
  <!-- Canada -->
  <path d="M158 130 L180 128 L200 125 L220 120 L240 118 L260 115 L280 110 L300 108 L320 105 L340 100 L360 102 L380 105 L400 108 L420 110 L440 112 L460 115 L480 118 L500 120 L520 118 L540 115 L560 112 L580 110 L600 112 L620 115 L640 118 L660 120 L680 122 L700 125 L720 128 L740 130 L760 132 L780 135 L800 138 L820 140 L840 142 L860 145 L880 148 L900 150 L920 152 L940 155 L960 158 L980 160 L985 165 L988 170 L990 175 L988 180 L985 185 L980 190 L960 188 L940 185 L920 182 L900 180 L880 178 L860 175 L840 172 L820 170 L800 168 L780 165 L760 162 L740 160 L720 158 L700 155 L680 152 L660 150 L640 148 L620 145 L600 142 L580 140 L560 142 L540 145 L520 148 L500 150 L480 148 L460 145 L440 142 L420 140 L400 138 L380 135 L360 132 L340 130 L320 135 L300 138 L280 140 L260 142 L240 145 L220 148 L200 150 L180 148 L160 145 L155 140 L150 135 L148 130 L150 125 L155 120 L158 125 Z" data-iso="CAN" fill="#e5e7eb" stroke="#ffffff" stroke-width="0.5"/>
  
  <!-- Mexico -->
  <path d="M158 350 L180 352 L200 355 L220 358 L240 360 L260 362 L280 365 L300 368 L320 370 L340 372 L360 375 L380 378 L400 380 L420 378 L440 375 L460 372 L480 370 L500 368 L520 365 L540 362 L560 360 L580 358 L600 355 L620 352 L640 350 L660 348 L680 345 L700 342 L720 340 L740 338 L760 335 L780 332 L800 330 L780 340 L760 345 L740 348 L720 350 L700 352 L680 355 L660 358 L640 360 L620 362 L600 365 L580 368 L560 370 L540 372 L520 375 L500 378 L480 380 L460 378 L440 375 L420 372 L400 370 L380 368 L360 365 L340 362 L320 360 L300 358 L280 355 L260 352 L240 350 L220 348 L200 345 L180 342 L160 340 L155 345 L150 350 L148 355 L150 360 L155 365 L158 360 Z" data-iso="MEX" fill="#e5e7eb" stroke="#ffffff" stroke-width="0.5"/>
  
  <!-- South America -->
  
  <!-- Brazil -->
  <path d="M320 380 L340 382 L360 385 L380 388 L400 390 L420 392 L440 395 L460 398 L480 400 L500 398 L520 395 L540 392 L560 390 L580 388 L600 385 L620 382 L640 380 L660 378 L680 375 L700 372 L720 370 L740 368 L760 365 L780 362 L800 360 L820 358 L840 355 L860 352 L880 350 L900 348 L920 345 L940 342 L960 340 L980 338 L985 343 L988 348 L990 353 L988 358 L985 363 L980 368 L960 370 L940 372 L920 375 L900 378 L880 380 L860 382 L840 385 L820 388 L800 390 L780 392 L760 395 L740 398 L720 400 L700 402 L680 405 L660 408 L640 410 L620 412 L600 415 L580 418 L560 420 L540 422 L520 425 L500 428 L480 430 L460 428 L440 425 L420 422 L400 420 L380 418 L360 415 L340 412 L320 410 L315 405 L310 400 L308 395 L310 390 L315 385 L320 380 Z" data-iso="BRA" fill="#e5e7eb" stroke="#ffffff" stroke-width="0.5"/>
  
  <!-- Argentina -->
  <path d="M280 420 L300 422 L320 425 L340 428 L360 430 L380 432 L400 435 L420 438 L440 440 L460 438 L480 435 L500 432 L520 430 L540 428 L560 425 L580 422 L600 420 L620 418 L640 415 L660 412 L680 410 L700 408 L720 405 L740 402 L760 400 L780 398 L800 395 L820 392 L840 390 L860 388 L880 385 L900 382 L920 380 L940 378 L960 375 L980 372 L985 377 L988 382 L990 387 L988 392 L985 397 L980 402 L960 404 L940 406 L920 408 L900 410 L880 412 L860 415 L840 418 L820 420 L800 422 L780 425 L760 428 L740 430 L720 432 L700 435 L680 438 L660 440 L640 442 L620 445 L600 448 L580 450 L560 452 L540 455 L520 458 L500 460 L480 462 L460 465 L440 468 L420 470 L400 468 L380 465 L360 462 L340 460 L320 458 L300 455 L280 452 L275 447 L270 442 L268 437 L270 432 L275 427 L280 422 Z" data-iso="ARG" fill="#e5e7eb" stroke="#ffffff" stroke-width="0.5"/>
  
  <!-- Europe -->
  
  <!-- United Kingdom -->
  <path d="M450 150 L470 152 L490 155 L510 158 L530 160 L550 162 L570 165 L590 168 L610 170 L630 172 L650 175 L670 178 L690 180 L710 182 L730 185 L750 188 L770 190 L790 192 L810 195 L830 198 L850 200 L870 202 L890 205 L910 208 L930 210 L950 212 L970 215 L990 218 L985 223 L980 228 L975 233 L970 238 L965 243 L960 248 L955 253 L950 258 L945 263 L940 268 L935 273 L930 278 L925 283 L920 288 L915 293 L910 298 L905 303 L900 308 L895 313 L890 318 L885 323 L880 328 L875 333 L870 338 L865 343 L860 348 L855 353 L850 358 L845 363 L840 368 L835 373 L830 378 L825 383 L820 388 L815 393 L810 398 L805 403 L800 408 L795 413 L790 418 L785 423 L780 428 L775 433 L770 438 L765 443 L760 448 L755 453 L750 458 L745 463 L740 468 L735 473 L730 478 L725 483 L720 488 L715 493 L710 498 L705 503 L700 508 L695 513 L690 518 L685 523 L680 528 L675 533 L670 538 L665 543 L660 548 L655 553 L650 558 L645 563 L640 568 L635 573 L630 578 L625 583 L620 588 L615 593 L610 598 L605 603 L600 608 L595 613 L590 618 L585 623 L580 628 L575 633 L570 638 L565 643 L560 648 L555 653 L550 658 L545 663 L540 668 L535 673 L530 678 L525 683 L520 688 L515 693 L510 698 L505 703 L500 708 L495 713 L490 718 L485 723 L480 728 L475 733 L470 738 L465 743 L460 748 L455 753 L450 758 L445 763 L440 768 L435 773 L430 778 L425 783 L420 788 L415 793 L410 798 L405 803 L400 808 L395 813 L390 818 L385 823 L380 828 L375 833 L370 838 L365 843 L360 848 L355 853 L350 858 L345 863 L340 868 L335 873 L330 878 L325 883 L320 888 L315 893 L310 898 L305 903 L300 908 L295 913 L290 918 L285 923 L280 928 L275 933 L270 938 L265 943 L260 948 L255 953 L250 958 L245 963 L240 968 L235 973 L230 978 L225 983 L220 988 L215 993 L210 998" data-iso="GBR" fill="#e5e7eb" stroke="#ffffff" stroke-width="0.5"/>
  
  <!-- France -->
  <path d="M480 180 L500 182 L520 185 L540 188 L560 190 L580 192 L600 195 L620 198 L640 200 L660 202 L680 205 L700 208 L720 210 L740 212 L760 215 L780 218 L800 220 L820 222 L840 225 L860 228 L880 230 L900 232 L920 235 L940 238 L960 240 L980 242 L985 247 L988 252 L990 257 L988 262 L985 267 L980 272 L960 270 L940 268 L920 265 L900 262 L880 260 L860 258 L840 255 L820 252 L800 250 L780 248 L760 245 L740 242 L720 240 L700 238 L680 235 L660 232 L640 230 L620 228 L600 225 L580 222 L560 220 L540 218 L520 215 L500 212 L480 210 L475 205 L470 200 L468 195 L470 190 L475 185 L480 180 Z" data-iso="FRA" fill="#e5e7eb" stroke="#ffffff" stroke-width="0.5"/>
  
  <!-- Germany -->
  <path d="M500 160 L520 162 L540 165 L560 168 L580 170 L600 172 L620 175 L640 178 L660 180 L680 182 L700 185 L720 188 L740 190 L760 192 L780 195 L800 198 L820 200 L840 202 L860 205 L880 208 L900 210 L920 212 L940 215 L960 218 L980 220 L985 225 L988 230 L990 235 L988 240 L985 245 L980 250 L960 248 L940 245 L920 242 L900 240 L880 238 L860 235 L840 232 L820 230 L800 228 L780 225 L760 222 L740 220 L720 218 L700 215 L680 212 L660 210 L640 208 L620 205 L600 202 L580 200 L560 198 L540 195 L520 192 L500 190 L495 185 L490 180 L488 175 L490 170 L495 165 L500 160 Z" data-iso="DEU" fill="#e5e7eb" stroke="#ffffff" stroke-width="0.5"/>
  
  <!-- Italy -->
  <path d="M520 200 L540 202 L560 205 L580 208 L600 210 L620 212 L640 215 L660 218 L680 220 L700 222 L720 225 L740 228 L760 230 L780 232 L800 235 L820 238 L840 240 L860 242 L880 245 L900 248 L920 250 L940 252 L960 255 L980 258 L985 263 L988 268 L990 273 L988 278 L985 283 L980 288 L960 286 L940 283 L920 280 L900 278 L880 275 L860 272 L840 270 L820 268 L800 265 L780 262 L760 260 L740 258 L720 255 L700 252 L680 250 L660 248 L640 245 L620 242 L600 240 L580 238 L560 235 L540 232 L520 230 L515 225 L510 220 L508 215 L510 210 L515 205 L520 200 Z" data-iso="ITA" fill="#e5e7eb" stroke="#ffffff" stroke-width="0.5"/>
  
  <!-- Spain -->
  <path d="M440 220 L460 222 L480 225 L500 228 L520 230 L540 232 L560 235 L580 238 L600 240 L620 242 L640 245 L660 248 L680 250 L700 252 L720 255 L740 258 L760 260 L780 262 L800 265 L820 268 L840 270 L860 272 L880 275 L900 278 L920 280 L940 283 L960 286 L980 288 L985 293 L988 298 L990 303 L988 308 L985 313 L980 318 L960 316 L940 313 L920 310 L900 308 L880 305 L860 302 L840 300 L820 298 L800 295 L780 292 L760 290 L740 288 L720 285 L700 282 L680 280 L660 278 L640 275 L620 272 L600 270 L580 268 L560 265 L540 262 L520 260 L500 258 L480 255 L460 252 L440 250 L435 245 L430 240 L428 235 L430 230 L435 225 L440 220 Z" data-iso="ESP" fill="#e5e7eb" stroke="#ffffff" stroke-width="0.5"/>
  
  <!-- Asia -->
  
  <!-- Russia -->
  <path d="M600 80 L620 82 L640 85 L660 88 L680 90 L700 92 L720 95 L740 98 L760 100 L780 102 L800 105 L820 108 L840 110 L860 112 L880 115 L900 118 L920 120 L940 122 L960 125 L980 128 L1000 130 L995 135 L990 140 L985 145 L980 150 L975 155 L970 160 L965 165 L960 170 L955 175 L950 180 L945 185 L940 190 L935 195 L930 200 L925 205 L920 210 L915 215 L910 220 L905 225 L900 230 L895 235 L890 240 L885 245 L880 250 L875 255 L870 260 L865 265 L860 270 L855 275 L850 280 L845 285 L840 290 L835 295 L830 300 L825 305 L820 310 L815 315 L810 320 L805 325 L800 330 L795 335 L790 340 L785 345 L780 350 L775 355 L770 360 L765 365 L760 370 L755 375 L750 380 L745 385 L740 390 L735 395 L730 400 L725 405 L720 410 L715 415 L710 420 L705 425 L700 430 L695 435 L690 440 L685 445 L680 450 L675 455 L670 460 L665 465 L660 470 L655 475 L650 480 L645 485 L640 490 L635 495 L630 500 L600 498 L570 495 L540 492 L510 490 L480 488 L450 485 L420 482 L390 480 L360 478 L330 475 L300 472 L270 470 L240 468 L210 465 L180 462 L150 460 L120 458 L90 455 L60 452 L30 450 L35 445 L40 440 L45 435 L50 430 L55 425 L60 420 L65 415 L70 410 L75 405 L80 400 L85 395 L90 390 L95 385 L100 380 L105 375 L110 370 L115 365 L120 360 L125 355 L130 350 L135 345 L140 340 L145 335 L150 330 L155 325 L160 320 L165 315 L170 310 L175 305 L180 300 L185 295 L190 290 L195 285 L200 280 L205 275 L210 270 L215 265 L220 260 L225 255 L230 250 L235 245 L240 240 L245 235 L250 230 L255 225 L260 220 L265 215 L270 210 L275 205 L280 200 L285 195 L290 190 L295 185 L300 180 L305 175 L310 170 L315 165 L320 160 L325 155 L330 150 L335 145 L340 140 L345 135 L350 130 L355 125 L360 120 L365 115 L370 110 L375 105 L380 100 L385 95 L390 90 L395 85 L400 80 L405 75 L410 70 L415 65 L420 60 L425 55 L430 50 L435 45 L440 40 L445 35 L450 30 L455 25 L460 20 L465 15 L470 10 L475 5 L480 0 L520 2 L560 5 L600 8 L640 10 L680 12 L720 15 L760 18 L800 20 L840 22 L880 25 L920 28 L960 30 L980 32 L985 37 L988 42 L990 47 L988 52 L985 57 L980 62 L960 60 L940 58 L920 55 L900 52 L880 50 L860 48 L840 45 L820 42 L800 40 L780 38 L760 35 L740 32 L720 30 L700 28 L680 25 L660 22 L640 20 L620 18 L600 15 L580 12 L560 10 L540 8 L520 5 L500 2 L480 0 L475 5 L470 10 L465 15 L460 20 L455 25 L450 30 L445 35 L440 40 L435 45 L430 50 L425 55 L420 60 L415 65 L410 70 L405 75 L400 80 L405 85 L410 90 L415 95 L420 100 L425 105 L430 110 L435 115 L440 120 L445 125 L450 130 L455 135 L460 140 L465 145 L470 150 L475 155 L480 160 L485 165 L490 170 L495 175 L500 180 L505 185 L510 190 L515 195 L520 200 L525 205 L530 210 L535 215 L540 220 L545 225 L550 230 L555 235 L560 240 L565 245 L570 250 L575 255 L580 260 L585 265 L590 270 L595 275 L600 280 L600 80 Z" data-iso="RUS" fill="#e5e7eb" stroke="#ffffff" stroke-width="0.5"/>
  
  <!-- China -->
  <path d="M620 180 L640 182 L660 185 L680 188 L700 190 L720 192 L740 195 L760 198 L780 200 L800 202 L820 205 L840 208 L860 210 L880 212 L900 215 L920 218 L940 220 L960 222 L980 225 L985 230 L988 235 L990 240 L988 245 L985 250 L980 255 L960 253 L940 250 L920 248 L900 245 L880 242 L860 240 L840 238 L820 235 L800 232 L780 230 L760 228 L740 225 L720 222 L700 220 L680 218 L660 215 L640 212 L620 210 L615 205 L610 200 L608 195 L610 190 L615 185 L620 180 Z" data-iso="CHN" fill="#e5e7eb" stroke="#ffffff" stroke-width="0.5"/>
  
  <!-- India -->
  <path d="M600 220 L620 222 L640 225 L660 228 L680 230 L700 232 L720 235 L740 238 L760 240 L780 242 L800 245 L820 248 L840 250 L860 252 L880 255 L900 258 L920 260 L940 262 L960 265 L980 268 L985 273 L988 278 L990 283 L988 288 L985 293 L980 298 L960 296 L940 293 L920 290 L900 288 L880 285 L860 282 L840 280 L820 278 L800 275 L780 272 L760 270 L740 268 L720 265 L700 262 L680 260 L660 258 L640 255 L620 252 L600 250 L595 245 L590 240 L588 235 L590 230 L595 225 L600 220 Z" data-iso="IND" fill="#e5e7eb" stroke="#ffffff" stroke-width="0.5"/>
  
  <!-- Japan -->
  <path d="M880 200 L900 202 L920 205 L940 208 L960 210 L980 212 L985 217 L988 222 L990 227 L988 232 L985 237 L980 242 L960 240 L940 238 L920 235 L900 232 L880 230 L875 225 L870 220 L868 215 L870 210 L875 205 L880 200 Z" data-iso="JPN" fill="#e5e7eb" stroke="#ffffff" stroke-width="0.5"/>
  
  <!-- Oceania -->
  
  <!-- Australia -->
  <path d="M780 380 L800 382 L820 385 L840 388 L860 390 L880 392 L900 395 L920 398 L940 400 L960 402 L980 405 L985 410 L988 415 L990 420 L988 425 L985 430 L980 435 L960 433 L940 430 L920 428 L900 425 L880 422 L860 420 L840 418 L820 415 L800 412 L780 410 L775 405 L770 400 L768 395 L770 390 L775 385 L780 380 Z" data-iso="AUS" fill="#e5e7eb" stroke="#ffffff" stroke-width="0.5"/>
  
  <!-- Africa -->
  
  <!-- South Africa -->
  <path d="M480 380 L500 382 L520 385 L540 388 L560 390 L580 392 L600 395 L620 398 L640 400 L660 402 L680 405 L700 408 L720 410 L740 412 L760 415 L780 418 L800 420 L820 422 L840 425 L860 428 L880 430 L900 432 L920 435 L940 438 L960 440 L980 442 L985 447 L988 452 L990 457 L988 462 L985 467 L980 472 L960 470 L940 468 L920 465 L900 462 L880 460 L860 458 L840 455 L820 452 L800 450 L780 448 L760 445 L740 442 L720 440 L700 438 L680 435 L660 432 L640 430 L620 428 L600 425 L580 422 L560 420 L540 418 L520 415 L500 412 L480 410 L475 405 L470 400 L468 395 L470 390 L475 385 L480 380 Z" data-iso="ZAF" fill="#e5e7eb" stroke="#ffffff" stroke-width="0.5"/>
  
  <!-- Nigeria -->
  <path d="M460 300 L480 302 L500 305 L520 308 L540 310 L560 312 L580 315 L600 318 L620 320 L640 322 L660 325 L680 328 L700 330 L720 332 L740 335 L760 338 L780 340 L800 342 L820 345 L840 348 L860 350 L880 352 L900 355 L920 358 L940 360 L960 362 L980 365 L985 370 L988 375 L990 380 L988 385 L985 390 L980 395 L960 393 L940 390 L920 388 L900 385 L880 382 L860 380 L840 378 L820 375 L800 372 L780 370 L760 368 L740 365 L720 362 L700 360 L680 358 L660 355 L640 352 L620 350 L600 348 L580 345 L560 342 L540 340 L520 338 L500 335 L480 332 L460 330 L455 325 L450 320 L448 315 L450 310 L455 305 L460 300 Z" data-iso="NGA" fill="#e5e7eb" stroke="#ffffff" stroke-width="0.5"/>
  
  <!-- Egypt -->
  <path d="M520 280 L540 282 L560 285 L580 288 L600 290 L620 292 L640 295 L660 298 L680 300 L700 302 L720 305 L740 308 L760 310 L780 312 L800 315 L820 318 L840 320 L860 322 L880 325 L900 328 L920 330 L940 332 L960 335 L980 338 L985 343 L988 348 L990 353 L988 358 L985 363 L980 368 L960 366 L940 363 L920 360 L900 358 L880 355 L860 352 L840 350 L820 348 L800 345 L780 342 L760 340 L740 338 L720 335 L700 332 L680 330 L660 328 L640 325 L620 322 L600 320 L580 318 L560 315 L540 312 L520 310 L515 305 L510 300 L508 295 L510 290 L515 285 L520 280 Z" data-iso="EGY" fill="#e5e7eb" stroke="#ffffff" stroke-width="0.5"/>
</svg>