<?xml version="1.0" encoding="UTF-8"?>
<svg viewBox="0 0 1000 500" xmlns="http://www.w3.org/2000/svg">
  <!-- Ocean background -->
  <rect width="1000" height="500" fill="#4A90E2"/>
  
  <!-- Countries with political borders -->
  <g stroke="#2C3E50" stroke-width="0.5" fill="#E8F4F8">
    
    <!-- North America -->
    <!-- United States -->
    <path d="M50,180 L80,160 L120,155 L160,160 L200,165 L240,170 L280,175 L320,180 L340,190 L345,200 L340,210 L320,220 L280,225 L240,230 L200,235 L160,230 L120,225 L80,220 L50,200 Z"/>
    
    <!-- Canada -->
    <path d="M50,80 L100,75 L140,80 L180,85 L220,90 L260,95 L300,100 L340,105 L360,115 L355,125 L340,135 L300,140 L260,135 L220,130 L180,125 L140,120 L100,115 L50,110 Z"/>
    
    <!-- Mexico -->
    <path d="M80,240 L120,235 L160,240 L200,245 L220,255 L215,265 L200,270 L160,265 L120,260 L80,255 Z"/>
    
    <!-- South America -->
    <!-- Brazil -->
    <path d="M240,300 L280,295 L320,305 L340,320 L350,340 L355,360 L350,380 L340,395 L320,405 L280,400 L240,385 L235,345 Z"/>
    
    <!-- Argentina -->
    <path d="M260,405 L280,400 L295,410 L300,430 L295,450 L280,455 L265,450 L260,430 Z"/>
    
    <!-- Chile -->
    <path d="M250,400 L265,405 L268,425 L265,445 L260,460 L255,445 L252,425 Z"/>
    
    <!-- Colombia -->
    <path d="M220,280 L240,275 L250,290 L245,305 L230,310 L220,295 Z"/>
    
    <!-- Peru -->
    <path d="M230,310 L250,305 L260,320 L255,340 L240,345 L230,330 Z"/>
    
    <!-- Europe -->
    <!-- United Kingdom -->
    <path d="M410,120 L425,115 L430,125 L425,135 L415,140 L405,135 L405,125 Z"/>
    
    <!-- France -->
    <path d="M420,140 L440,135 L455,145 L450,160 L435,165 L420,160 L415,150 Z"/>
    
    <!-- Germany -->
    <path d="M440,125 L460,120 L475,130 L470,145 L455,150 L440,145 L435,135 Z"/>
    
    <!-- Spain -->
    <path d="M400,160 L420,155 L435,165 L430,175 L415,180 L400,175 Z"/>
    
    <!-- Italy -->
    <path d="M455,150 L470,145 L475,160 L470,175 L460,180 L455,165 Z"/>
    
    <!-- Poland -->
    <path d="M475,130 L495,125 L510,135 L505,150 L490,155 L475,150 Z"/>
    
    <!-- Ukraine -->
    <path d="M480,150 L520,145 L560,155 L565,175 L560,190 L540,200 L520,195 L480,185 L475,170 Z"/>
    
    <!-- Russia -->
    <path d="M560,90 L620,85 L680,90 L740,95 L800,100 L860,105 L900,110 L920,120 L915,135 L900,150 L860,160 L800,170 L740,175 L680,170 L620,165 L560,155 L545,125 Z"/>
    
    <!-- Scandinavia -->
    <!-- Norway -->
    <path d="M450,80 L470,75 L485,90 L480,110 L470,115 L450,110 Z"/>
    
    <!-- Sweden -->
    <path d="M470,75 L490,70 L505,85 L500,105 L485,110 L470,105 Z"/>
    
    <!-- Finland -->
    <path d="M490,70 L510,65 L525,80 L520,100 L505,105 L490,100 Z"/>
    
    <!-- Middle East -->
    <!-- Turkey -->
    <path d="M500,190 L540,185 L560,195 L555,205 L540,210 L500,205 Z"/>
    
    <!-- Syria -->
    <path d="M520,210 L540,205 L550,215 L545,225 L530,230 L520,225 Z"/>
    
    <!-- Israel/Palestine -->
    <path d="M515,230 L525,225 L530,235 L525,245 L515,240 Z"/>
    
    <!-- Lebanon -->
    <path d="M515,220 L525,215 L530,225 L525,230 L515,225 Z"/>
    
    <!-- Jordan -->
    <path d="M525,235 L540,230 L545,245 L540,255 L525,250 Z"/>
    
    <!-- Iraq -->
    <path d="M545,205 L565,200 L580,210 L575,225 L560,230 L545,225 Z"/>
    
    <!-- Iran -->
    <path d="M580,200 L620,195 L640,210 L635,230 L620,240 L580,235 Z"/>
    
    <!-- Saudi Arabia -->
    <path d="M530,245 L580,240 L600,260 L595,280 L580,290 L530,285 Z"/>
    
    <!-- Yemen -->
    <path d="M540,285 L580,280 L590,295 L585,305 L570,310 L540,305 Z"/>
    
    <!-- Oman -->
    <path d="M590,295 L610,290 L620,305 L615,315 L600,320 L590,305 Z"/>
    
    <!-- UAE -->
    <path d="M580,290 L600,285 L610,295 L605,305 L590,300 Z"/>
    
    <!-- Kuwait -->
    <path d="M565,225 L580,220 L585,235 L580,245 L565,240 Z"/>
    
    <!-- Afghanistan -->
    <path d="M640,200 L680,195 L700,210 L695,230 L680,245 L640,240 Z"/>
    
    <!-- Pakistan -->
    <path d="M680,245 L700,240 L720,255 L715,275 L700,280 L680,275 Z"/>
    
    <!-- Africa -->
    <!-- Morocco -->
    <path d="M420,250 L460,245 L480,260 L475,275 L460,280 L420,275 Z"/>
    
    <!-- Algeria -->
    <path d="M460,245 L500,240 L520,255 L515,275 L500,285 L460,280 Z"/>
    
    <!-- Tunisia -->
    <path d="M500,240 L515,235 L520,250 L515,260 L500,255 Z"/>
    
    <!-- Libya -->
    <path d="M515,250 L540,245 L555,260 L550,280 L535,285 L515,275 Z"/>
    
    <!-- Egypt -->
    <path d="M540,245 L570,240 L585,255 L580,275 L565,280 L540,275 Z"/>
    
    <!-- Mali -->
    <path d="M420,275 L460,270 L480,285 L475,300 L460,310 L420,305 Z"/>
    
    <!-- Niger -->
    <path d="M460,280 L500,275 L520,290 L515,305 L500,315 L460,310 Z"/>
    
    <!-- Chad -->
    <path d="M520,275 L560,270 L580,285 L575,305 L560,315 L520,310 Z"/>
    
    <!-- Sudan -->
    <path d="M560,270 L600,265 L620,280 L615,305 L600,320 L560,315 Z"/>
    
    <!-- Ethiopia -->
    <path d="M600,320 L640,315 L660,330 L655,350 L640,360 L600,355 Z"/>
    
    <!-- Somalia -->
    <path d="M640,330 L670,325 L685,340 L680,360 L665,365 L640,360 Z"/>
    
    <!-- Kenya -->
    <path d="M620,350 L640,345 L655,360 L650,375 L635,380 L620,375 Z"/>
    
    <!-- Tanzania -->
    <path d="M600,355 L620,350 L635,365 L630,380 L615,385 L600,380 Z"/>
    
    <!-- Uganda -->
    <path d="M600,340 L620,335 L630,350 L625,360 L610,365 L600,360 Z"/>
    
    <!-- Nigeria -->
    <path d="M460,310 L500,305 L520,320 L515,335 L500,345 L460,340 Z"/>
    
    <!-- Cameroon -->
    <path d="M500,320 L520,315 L535,330 L530,345 L515,350 L500,345 Z"/>
    
    <!-- Central African Republic -->
    <path d="M520,315 L560,310 L580,325 L575,340 L560,345 L520,340 Z"/>
    
    <!-- Democratic Republic of Congo -->
    <path d="M500,345 L540,340 L560,355 L555,375 L540,385 L500,380 Z"/>
    
    <!-- Angola -->
    <path d="M500,380 L540,375 L555,390 L550,405 L535,410 L500,405 Z"/>
    
    <!-- Zambia -->
    <path d="M540,375 L570,370 L585,385 L580,400 L565,405 L540,400 Z"/>
    
    <!-- Zimbabwe -->
    <path d="M570,385 L590,380 L605,395 L600,405 L585,410 L570,405 Z"/>
    
    <!-- South Africa -->
    <path d="M520,400 L560,395 L580,410 L575,425 L560,435 L520,430 Z"/>
    
    <!-- Botswana -->
    <path d="M540,400 L570,395 L580,405 L575,415 L560,420 L540,415 Z"/>
    
    <!-- Namibia -->
    <path d="M520,395 L540,390 L550,405 L545,420 L530,425 L520,420 Z"/>
    
    <!-- Asia -->
    <!-- China -->
    <path d="M700,160 L760,155 L820,165 L860,175 L880,190 L875,210 L860,230 L820,245 L760,250 L700,240 L680,220 L685,190 Z"/>
    
    <!-- Mongolia -->
    <path d="M720,140 L780,135 L820,150 L815,170 L780,175 L720,170 Z"/>
    
    <!-- India -->
    <path d="M660,250 L700,245 L720,260 L730,280 L725,300 L700,315 L660,310 L640,295 L645,275 Z"/>
    
    <!-- Bangladesh -->
    <path d="M720,280 L735,275 L745,290 L740,300 L725,305 L720,295 Z"/>
    
    <!-- Myanmar -->
    <path d="M720,280 L740,275 L755,290 L750,305 L735,315 L720,310 Z"/>
    
    <!-- Thailand -->
    <path d="M740,305 L760,300 L775,315 L770,330 L755,340 L740,335 Z"/>
    
    <!-- Laos -->
    <path d="M750,290 L765,285 L775,300 L770,315 L755,320 L750,305 Z"/>
    
    <!-- Vietnam -->
    <path d="M775,285 L790,280 L805,295 L800,315 L785,330 L775,325 Z"/>
    
    <!-- Cambodia -->
    <path d="M760,315 L775,310 L785,325 L780,335 L765,340 L760,330 Z"/>
    
    <!-- Malaysia -->
    <path d="M750,340 L780,335 L795,350 L790,365 L775,370 L750,365 Z"/>
    
    <!-- Indonesia -->
    <path d="M760,340 L800,335 L830,350 L825,365 L800,375 L760,370 Z"/>
    
    <!-- Philippines -->
    <path d="M800,300 L820,295 L835,310 L830,325 L815,330 L800,325 Z"/>
    
    <!-- Japan -->
    <path d="M880,200 L900,195 L915,210 L910,225 L895,235 L880,230 Z"/>
    
    <!-- South Korea -->
    <path d="M840,220 L855,215 L865,230 L860,240 L845,245 L840,235 Z"/>
    
    <!-- North Korea -->
    <path d="M835,210 L850,205 L860,220 L855,230 L840,235 L835,225 Z"/>
    
    <!-- Kazakhstan -->
    <path d="M620,160 L680,155 L720,170 L715,190 L680,195 L620,185 Z"/>
    
    <!-- Uzbekistan -->
    <path d="M620,185 L660,180 L680,195 L675,210 L660,215 L620,210 Z"/>
    
    <!-- Turkmenistan -->
    <path d="M600,200 L640,195 L660,210 L655,225 L640,230 L600,225 Z"/>
    
    <!-- Kyrgyzstan -->
    <path d="M660,180 L680,175 L695,190 L690,200 L675,205 L660,195 Z"/>
    
    <!-- Tajikistan -->
    <path d="M680,190 L700,185 L715,200 L710,210 L695,215 L680,205 Z"/>
    
    <!-- Australia -->
    <path d="M760,390 L820,385 L860,400 L880,415 L875,435 L860,450 L820,455 L760,450 Z"/>
    
    <!-- New Zealand -->
    <path d="M890,450 L905,445 L910,455 L905,465 L890,460 Z"/>
    
    <!-- Papua New Guinea -->
    <path d="M830,360 L850,355 L865,370 L860,380 L845,385 L830,380 Z"/>
  </g>
</svg>